# xmcd
#
# Track frame offsets: 
#        150
#        29164
#        55693
#        81750
#        104259
#        134071
#        166118
#        187187
#        208825
#
# Disc length: 2974 seconds
#
# Revision: 1
# Processed by: cddbd v1.5.2PL0 Copyright (c) Steve Scherf et al.
# Submitted via: ExactAudioCopy v1.0b1
#
DISCID=820b9c09
DTITLE=Lewellyn - Mysts Of Avalon
DYEAR=2004
DGENRE=New Age
TTITLE0=Silver Moon Woods
TTITLE1=Merlyn And The Crossing
TTITLE2=Through The Mysts
TTITLE3=The Summerlands
TTITLE4=Queen Of The Moon
TTITLE5=The Dragon's Breath
TTITLE6=The Calling
TTITLE7=The Crystal Castle
TTITLE8=Seeking The Candle
EXTD=YEAR: 2004
EXTT0=
EXTT1=
EXTT2=
EXTT3=
EXTT4=
EXTT5=
EXTT6=
EXTT7=
EXTT8=
PLAYORDER=
